# xmcd
#
# Track frame offsets: 
#        150
#        34275
#        47325
#        59022
#        78865
#
# Disc length: 1465 seconds
#
# Revision: 0
# Processed by: cddbd v1.5.1PL0 Copyright (c) Steve Scherf et al.
# Submitted via: ExactAudioCopy v0.95a5
#
DISCID=3805b705
DTITLE=Blues Band - Blues In My Soul
DYEAR=1985
DGENRE=Blues
TTITLE0=And So It Goes
TTITLE1=Severe Infatuation
TTITLE2=When It Hits You
TTITLE3=Glory, Glory
TTITLE4=Blues In My Soul
EXTD=
EXTT0=
EXTT1=
EXTT2=
EXTT3=
EXTT4=
PLAYORDER=
